 <svg  version="1.0" xmlns="http://www.w3.org/2000/svg"  width="130.000000pt" height="130.000000pt" viewBox="0 0 130.000000 130.000000"  preserveAspectRatio="xMidYMid meet">  <g transform="translate(0.000000,130.000000) scale(0.100000,-0.100000)" fill="#ffa95f" stroke="none"> <path d="M761 1207 c-15 -43 -78 -105 -126 -121 -43 -15 -108 -5 -137 21 -10 9 -23 33 -30 54 -6 21 -19 46 -29 55 -16 15 -20 14 -51 -9 -61 -47 -172 -99 -243 -113 -38 -9 -74 -19 -79 -24 -6 -6 -2 -35 12 -77 12 -38 31 -108 43 -156 12 -49 29 -98 39 -109 l17 -21 85 26 c47 15 91 27 98 27 15 0 7 -318 -13 -470 -17 -139 -16 -194 7 -219 l19 -20 62 34 c55 31 74 36 156 42 62 4 147 0 250 -12 141 -15 158 -15 192 -1 42 17 46 30 16 62 -22 24 -51 193 -63 369 -4 50 -9 121 -12 159 l-6 68 33 -7 c19 -4 51 -16 71 -26 20 -10 43 -16 51 -13 8 3 29 51 47 107 18 56 43 128 56 159 34 82 26 98 -73 133 -43 15 -129 40 -192 57 -63 16 -127 36 -142 44 -40 20 -46 18 -58 -19z m131 -32 c51 -14 144 -42 205 -62 119 -39 135 -52 112 -95 -7 -13 -29 -75 -50 -138 -21 -63 -42 -116 -48 -118 -6 -2 -34 4 -61 13 -47 16 -53 16 -76 1 l-24 -17 4 -152 c4 -117 3 -135 -4 -77 -17 153 -30 313 -25 318 2 3 10 0 17 -6 43 -34 151 -31 172 5 6 10 21 51 33 91 36 120 14 141 -207 197 -104 27 -118 23 -180 -45 -44 -48 -64 -63 -97 -71 -54 -12 -119 2 -147 31 l-21 22 25 -8 c14 -5 48 -9 75 -9 40 0 59 6 97 33 27 18 58 51 70 72 13 22 26 40 30 40 4 0 49 -11 100 -25z m-451 -19 c6 -22 5 -27 -7 -22 -8 3 -43 -7 -77 -23 -34 -16 -79 -36 -100 -45 -21 -9 -56 -30 -78 -47 -35 -28 -39 -35 -39 -77 l-1 -47 -24 74 c-14 40 -23 77 -20 81 3 5 31 14 63 20 49 9 197 73 212 91 10 12 45 28 54 26 6 -2 13 -16 17 -31z m551 -61 c113 -36 159 -58 153 -74 -4 -9 -16 -50 -27 -91 -11 -41 -24 -80 -29 -86 -12 -15 -84 -2 -136 24 -60 31 -65 21 -53 -119 15 -174 28 -292 47 -426 9 -67 14 -125 10 -129 -3 -4 -57 -1 -118 6 -109 13 -335 9 -388 -6 l-24 -7 6 109 c4 60 9 192 12 294 3 102 8 195 10 207 6 27 -39 83 -67 83 -11 0 -37 -9 -57 -20 -20 -11 -57 -29 -83 -39 -27 -11 -48 -25 -48 -31 0 -14 -2 -14 91 25 46 19 89 35 96 35 7 0 19 -10 26 -22 11 -19 12 -67 6 -243 -4 -121 -10 -256 -13 -300 -7 -80 -7 -80 21 -97 22 -13 43 -15 98 -10 96 9 170 8 301 -1 120 -8 142 -5 153 25 6 18 10 16 35 -17 23 -30 26 -39 15 -46 -19 -12 -101 -11 -179 2 -36 6 -127 11 -203 11 -135 0 -140 -1 -199 -32 -34 -17 -68 -28 -76 -25 -15 5 -15 1 6 245 12 134 20 375 15 401 -8 33 -45 42 -104 26 -106 -29 -109 -30 -118 -5 -4 13 -11 36 -15 52 l-7 30 19 -25 c29 -35 33 -21 12 41 -11 30 -19 69 -20 87 0 39 20 55 156 120 54 26 102 49 106 51 3 2 20 -17 38 -43 82 -119 240 -118 321 2 18 27 37 51 42 54 9 7 86 -10 169 -36z"/> </g> </svg> 